<svg width="236" height="369" viewBox="0 0 236 369" fill="none" xmlns="http://www.w3.org/2000/svg">
<path d="M148.544 190.323C155.795 191.544 165.307 189.854 172.838 189.972C175.344 190.01 177.977 189.927 180.485 189.893C181.892 189.873 183.009 189.271 184.384 189.171C191.467 188.921 198.501 188.818 205.585 188.7C210.075 188.34 214.606 187.948 219.112 188.061C221.012 188.108 220.712 189.879 220.453 191.227C219.813 191.774 214.678 191.729 213.565 191.808C211.818 191.934 209.421 192.514 207.769 192.5C191.13 192.36 174.522 193.363 157.899 193.963C155.106 194.064 152.293 193.893 149.507 193.753C148.835 193.719 147.815 194.008 147.849 194.81C149.582 193.947 152.383 194.504 154.491 194.673L154.022 195.31L154.182 195.502C155.228 195.863 157.921 195.784 159.123 195.878C167.816 196.547 176.513 197.217 185.198 197.983C186.697 198.116 187.734 198.923 189.188 199.015C192.257 199.207 195.799 198.609 198.744 199.648C201.589 200.757 206.302 199.842 209.025 200.187C212.291 200.602 216.774 200.793 219.835 201.359C219.727 207.55 215.944 204.122 211.671 203.942C193.477 203.176 175.351 200.288 157.147 199.444C154.181 199.306 150.981 199.259 148.14 198.387C146.543 197.841 147.757 191.542 148.544 190.323Z" fill="white"/>
<path d="M142.673 208.999C143.633 207.056 145.01 204.623 145.624 202.621C148.643 203.108 152.693 204.623 155.64 205.666L167.272 209.732L193.166 218.69C200.049 221.043 207.323 223.159 214.017 225.996C214.603 226.244 213.565 228.984 213.422 229.367L171.258 214.872L157.52 209.98C154.137 208.756 151.071 207.435 147.517 206.838C146.704 206.701 145.331 205.968 144.548 206.031C144.762 206.383 149.874 208.409 150.679 208.803L189.172 228.022C195.355 231.089 201.661 233.938 207.841 237.022C210.323 238.26 209.882 239.11 208.116 241.061C203.843 239.373 199.914 236.719 195.717 234.889C194.978 234.568 194.252 234.289 193.52 233.935L178.242 226.368C173.367 223.972 167.432 220.821 162.539 218.692C156.563 215.383 150.355 212.513 143.963 210.108C143.528 209.745 143.098 209.375 142.673 208.999Z" fill="white"/>
<path d="M117.251 37.3354C118.24 38.5189 119.749 41.6088 119.791 43.0595C120.019 51.0279 119.508 59.2304 119.231 67.177L117.995 108.349C117.799 114.463 117.643 120.577 117.529 126.693C117.446 130.157 117.551 134.001 116.975 137.363L116.824 137.34C116 135.794 114.097 131.951 113.952 130.325C113.608 126.72 113.806 123.012 113.885 119.403C114.022 113.228 113.703 107.105 114.614 100.971C114.847 99.403 114.877 97.301 114.934 95.6814L115.995 64.3695C116.27 54.8945 116.311 46.8365 117.251 37.3354Z" fill="white"/>
<path d="M129.744 57.3486C131.128 57.886 132.389 59.6103 132.236 61.1244C131.38 69.593 130.339 78.0523 129.232 86.4921L125.834 113.702C125.303 117.954 124.989 122.233 124.507 126.493C123.969 131.002 123.348 135.501 122.644 139.987C122.473 141.133 121.975 145.089 121.543 145.943C120.652 145.033 119.782 143.379 119.215 142.23L124.03 103.532L127.732 70.5758C128.016 68.2064 128.872 59.0263 129.744 57.3486Z" fill="white"/>
<path d="M142.758 72.7158C144.189 72.8057 144.613 73.4923 145.618 74.5247C145.419 75.8755 144.716 78.2964 144.358 79.688L142.284 87.9048L135.868 113.539C133.559 122.781 131.472 132.133 129.032 141.33C128.291 144.127 127.291 148.728 126.217 151.29C126.049 151.315 125.902 151.291 125.746 151.223C125.155 150.966 124.492 149.937 124.248 149.362C123.487 147.565 128.59 129.524 129.476 126.17C129.658 125.482 129.715 124.711 129.955 124.045C130.114 123.604 130.523 123.304 130.649 122.863C130.922 121.907 130.81 119.913 131.205 118.331L139.328 86.417C140.24 82.8439 141.512 75.9506 142.758 72.7158Z" fill="white"/>
<path d="M215.8 163.44C217.349 163.244 218.57 164.598 217.982 166.082C216.467 167.513 174.891 178.405 170.282 179.67L149.197 185.674L148.291 185.712C147.911 185.446 147.794 185.095 147.661 184.667C147.45 183.991 147.398 183.078 147.754 182.449C148.315 181.46 151.527 181.694 152.66 181.379C153.502 181.146 153.985 180.48 154.76 180.189C156.353 179.59 158.305 179.447 159.98 179.079C163.757 178.251 167.463 176.755 171.213 175.746C177.187 174.139 183.205 172.693 189.16 171.009C198.043 168.498 206.854 165.734 215.8 163.44Z" fill="white"/>
<path d="M146.78 199.054C147.358 199.313 152.113 199.807 153.216 200.047C167.272 203.085 181.508 206.2 195.587 209.084C200.838 210.11 206.072 211.223 211.284 212.424C213.215 212.862 215.194 213.272 217.112 213.745C217.797 213.914 217.802 213.921 218.056 214.403C218.109 215.62 217.694 216.163 216.921 217.008C216.069 217.382 213.497 216.503 212.446 216.31C202.991 214.592 193.781 211.983 184.323 210.229C179.557 209.346 174.657 208.197 169.92 207.151C166.824 206.477 163.736 205.765 160.657 205.014C157.752 204.314 154.565 203.18 151.628 203.806C150.043 203.167 148.924 202.873 147.24 202.624C145.533 202.373 146.489 200.082 146.78 199.054Z" fill="white"/>
<path d="M148.972 186.156C149.61 185.971 150.596 185.658 151.254 185.638C155.29 185.509 159.36 184.831 163.34 184.187L203.424 177.854L214.137 176.102C215.446 175.898 217.818 175.459 219.078 175.449C220 176.019 219.733 177.938 219.711 178.98C214.689 179.615 210.197 180.419 205.268 181.138C194.98 182.578 184.707 184.14 174.456 185.827C166.406 187.177 158.496 188.43 150.389 189.429C149.589 189.528 148.745 189.832 147.939 189.789L147.904 189.575L148.191 189.185L148.14 188.985C147.944 188.21 147.916 188.054 148.007 187.265C149.051 186.722 149.637 186.839 150.566 186.386C150.046 186.114 149.571 186.168 148.972 186.156Z" fill="white"/>
<path d="M154.863 83.6929C155.523 84.436 156.221 85.3868 156.838 86.1834C154.12 95.0026 149.403 106.046 146.076 114.834L135.354 142.925C134.644 144.785 131.434 154.255 130.593 155.197C126.862 153.798 128.893 152.097 129.79 149.17C132.313 140.936 135.636 133.049 138.744 125.044C140.679 120.057 142.552 114.86 144.455 109.831L150.773 93.5617C151.718 91.1109 153.643 85.5738 154.863 83.6929Z" fill="white"/>
<path d="M212.5 150.968C212.864 150.976 212.811 150.993 213.163 151.126C213.729 151.83 213.709 153.198 213.788 154.138C192.974 163.416 170.823 171.715 149.854 180.75C149.689 180.82 149.254 181.124 148.977 181.254L148.826 181.324C148.507 181.396 148.25 181.421 147.928 181.457C147.108 180.918 146.831 178.533 147.513 178.163C150.185 176.713 153.146 175.855 155.894 174.669C161.135 172.363 166.392 170.095 171.665 167.864L193.526 159.045C199.547 156.557 206.737 153.868 212.5 150.968Z" fill="white"/>
<path d="M140.332 212.428C142.725 214.092 144.977 216.075 147.25 217.907L160.112 228.226C163.199 230.665 166.404 233.01 169.464 235.474C172.026 237.536 174.516 239.747 177.068 241.849L188.877 251.425C191.381 253.487 194.751 255.857 196.991 257.82C196.389 258.503 195.663 259.233 195.03 259.902C194.787 259.92 194.547 259.932 194.304 259.929C193.547 259.916 184.865 252.2 183.393 251.016C179.704 248.046 175.917 245.2 172.217 242.246L149.329 223.676C147.307 222.018 145.264 220.383 143.207 218.768C141.761 217.634 139.997 216.562 138.734 215.261C138.652 214.355 139.742 213.19 140.332 212.428Z" fill="white"/>
<path d="M142.394 209.337C143.059 209.745 143.221 209.832 143.963 210.109C145.237 211.065 146.623 211.759 147.928 212.656C150.581 214.481 153.229 216.313 155.94 218.049C158.934 219.969 162.085 221.688 165.083 223.595C173.077 228.679 181.2 233.558 189.043 238.879C193.402 241.844 197.893 244.497 202.432 247.168C202.838 247.407 203.117 247.81 203.282 248.247C203.354 249.176 202.835 249.885 202.213 250.512C202.071 250.519 201.898 250.526 201.695 250.535C197.347 248.047 192.986 245.335 188.773 242.613C174.122 233.144 159.306 223.937 144.625 214.515C142.757 213.316 142.495 213.826 140.57 212.102C141 211.284 141.849 210.128 142.394 209.337Z" fill="white"/>
<path d="M207.075 139.646C208.089 139.914 208.491 141.538 208.79 142.436C208.333 142.813 207.837 143.138 207.339 143.458C200.958 147.558 194.101 150.853 187.5 154.568L162.524 168.609C157.368 171.523 152.479 174.584 147.132 177.109C146.784 177.104 146.873 177.093 146.526 176.953C146.007 176.193 146.026 174.503 145.983 173.551C145.891 173.68 153.354 170.032 154.144 169.561C171.524 159.197 189.844 150.251 207.075 139.646Z" fill="white"/>
<path d="M165.09 93.4116C166.194 93.8224 166.988 94.6209 167.83 95.4105C157.937 112.687 149.557 130.871 139.846 148.265C139.508 148.871 139.789 149.839 139.326 150.391L139.214 149.748C138.96 149.921 135.101 157.256 134.63 158.149L134.42 158.299C133.331 157.741 133.024 157.51 132.061 156.738C133.145 154.928 133.797 153.627 134.529 151.647C134.651 151.315 135.145 150.653 135.233 150.346C135.444 149.611 135.131 149.43 135.565 148.741L135.905 148.971C137.045 147.755 139.57 141.478 140.6 139.609C147.956 126.252 154.685 112.553 162 99.1801C163.034 97.2894 163.958 95.2167 165.09 93.4116Z" fill="white"/>
<path d="M135.111 217.801C135.457 217.892 135.691 218.034 135.983 218.238C137.642 219.394 136.842 220.19 137.773 221.407C138.288 222.081 139.182 222.442 139.707 223.136C140.229 223.827 140.26 224.652 140.825 225.348C144.949 230.437 178.241 272.778 178.441 273.943C178.239 274.461 177.789 274.669 177.306 275C176.898 275.209 176.394 275.419 175.969 275.61C172.801 272.111 169.949 267.982 167.032 264.246C157.715 252.301 148.232 240.556 139.459 228.193C137.42 225.321 135.062 223.199 132.968 220.01C133.709 219.424 134.375 218.527 135.111 217.801Z" fill="white"/>
<path d="M184.439 110.323C186.007 110.327 186.311 111.206 187.125 112.392C185.834 114.081 183.882 116.02 182.415 117.621C176.952 123.586 171.905 129.865 166.671 136.007C160.813 142.934 154.816 149.743 148.684 156.43C146.169 159.216 143.979 161.914 141.322 164.629C141.17 164.738 140.895 164.891 140.725 164.993C139.523 164.576 139.534 163.297 139.543 162.204C146.058 155.621 151.368 147.708 157.624 140.88C161.683 136.449 165.614 132.067 169.537 127.517L178.289 117.342C180.099 115.215 182.505 112.246 184.439 110.323Z" fill="white"/>
<path d="M138.002 215.279C139.464 215.978 141.483 219.358 142.307 219.748C142.315 219.28 141.96 218.86 141.688 218.389C142.365 218.783 144.294 221.249 144.434 221.765C143.936 221.285 143.612 221.062 143.059 220.67L143.063 220.78C143.561 221.317 144.529 222.484 145.159 222.711C145.953 222.995 146.131 223.048 146.691 223.706L146.319 223.732L146.236 223.911C147.302 225.33 149.269 227.117 150.585 228.357C152.731 230.345 154.832 232.382 156.886 234.466C167.136 245.024 177.101 255.296 187.529 265.721L188.325 266.654C187.511 267.466 186.726 268.092 185.841 268.814C184.096 267.504 180.413 263.418 178.709 261.62L167.921 250.332C165.002 247.231 161.936 244.549 159.108 241.599L146.87 228.981C146.25 228.336 145.553 227.631 144.978 226.95C142.091 223.532 138.886 220.575 135.639 217.506C136.409 216.737 137.201 216.014 138.002 215.279Z" fill="white"/>
<path d="M200.705 129.208C200.89 129.274 201.064 129.405 201.235 129.514C201.855 130.631 202.403 131.849 201.15 132.794C195.575 136.992 189.807 141.015 184.148 145.106L145.886 172.703C145.637 172.794 145.376 172.958 145.189 172.862C144.501 172.505 144.064 170.867 143.803 170.112C145.714 168.525 147.806 167.323 149.798 165.881C152.692 163.786 155.654 161.705 158.525 159.586C169.584 151.436 180.753 143.435 192.025 135.584C194.96 133.506 197.814 131.217 200.705 129.208Z" fill="white"/>
<path d="M132.346 219.978C133.626 220.857 136.289 226.784 137.416 228.467C139.799 232.023 141.881 235.972 144.081 239.64L157.81 262.49L164.44 273.526C165.597 275.459 166.792 277.379 167.815 279.383C168.389 280.507 167.246 280.935 166.404 281.264L165.281 281.098C164.725 280.586 163.175 277.683 162.62 276.825C158.714 270.785 155.314 264.365 151.637 258.231L135.717 231.588C134 228.726 131.998 226.024 130.323 223.095C130.833 221.432 131.065 221.168 132.346 219.978Z" fill="white"/>
<path d="M128.365 222.583C128.722 222.601 129.048 222.63 129.403 222.664C130.314 223.334 131.597 227.546 132.202 228.859L142.636 251.229C143.695 253.55 156.97 283.869 156.965 284.176C156.963 284.349 156.857 284.609 156.813 284.782C156.413 285.361 155.759 285.564 155.109 285.846C154.664 285.517 154.026 284.776 153.796 284.271C149.456 274.725 144.934 265.261 140.592 255.715C139.986 254.383 139.673 253.018 139.147 251.684C138.819 250.852 137.806 249.806 137.463 248.923C134.127 240.395 130.027 232.233 126.334 223.87C126.945 223.529 127.758 222.973 128.365 222.583Z" fill="white"/>
<path d="M175.192 101.677C176.621 101.936 176.631 102.204 177.548 103.462C176.413 105.985 173.365 109.847 171.683 112.351C164.876 122.549 157.863 132.712 151.071 142.913C149.396 145.429 138.249 160.441 138.238 161.963C137.54 161.459 136.454 160.367 135.795 159.743C144.565 146.225 153.578 132.867 162.83 119.674C166.68 114.082 171.163 107.039 175.192 101.677Z" fill="white"/>
<path d="M193.069 119.5C194.061 120.204 194.534 120.798 195.222 121.78C190.044 126.833 184.15 131.788 178.881 136.789C176.816 138.727 174.416 140.499 172.407 142.483C166.087 148.723 159.643 154.718 152.849 160.445C151.931 161.218 151.684 162.109 150.895 162.963C150.283 163.626 150.173 162.91 149.487 163.477C147.442 165.423 146.224 166.679 143.87 168.207C143.596 168.313 143.31 168.399 143.031 168.49C142.346 168.105 142.149 167.349 141.778 166.558C146.979 161.885 151.544 157.1 156.511 152.524L193.069 119.5Z" fill="white"/>
<path d="M126.114 224.737L126.217 224.758C126.491 225.179 126.502 225.262 126.651 225.749C126.501 225.948 126.244 226.292 126.338 226.567C131.556 241.623 136.46 256.826 140.996 272.101C141.765 274.691 145.752 286.294 145.536 287.975C144.999 288.728 143.738 288.933 143.02 288.458C141.856 286.292 139.641 278.45 138.742 275.799C134.376 262.908 130.527 249.871 126.427 236.898C125.537 234.081 124.502 231.32 124.043 228.406C123.554 227.82 122.624 227.029 122.781 226.139C123.082 224.429 125.069 225.161 126.114 224.737Z" fill="white"/>
<path d="M121.241 226.108C121.625 226.038 121.836 226.218 122.191 226.412C122.978 227.336 123.082 230.063 123.312 231.352L125.523 243.519C127.397 253.534 129.701 263.515 131.186 273.631C131.942 278.774 133.529 284.51 134.163 289.6C133.918 290.247 132.939 290.73 132.307 291.022C131.899 290.928 131.668 290.865 131.272 290.727C130.604 289.72 124.8 258.019 124.023 254.365C123.94 253.978 124.075 252.348 124.012 252.18C123.572 251.023 123.476 251.513 123.216 250.041C122.426 245.565 121.859 241.13 121.094 236.645C120.564 233.545 119.558 230.428 119.424 227.397C120.154 226.781 120.413 226.567 121.241 226.108Z" fill="white"/>
<path d="M116.985 227.255C117.842 227.172 118.302 227.045 118.824 227.801C118.967 228.914 118.881 234.44 118.886 235.499C118.913 241.599 123.259 289.019 121.886 291.106L121.144 291.163C120.274 291.082 119.848 291.073 118.974 291.109C118.872 290.051 118.844 288.959 118.784 287.895C118.516 283.723 118.355 279.534 118.139 275.362C117.852 269.821 117.179 264.351 117.225 258.785C117.123 257.144 116.563 255.477 116.487 253.834C116.1 245.493 116.031 237.149 115.364 228.821C115.338 228.508 115.4 228.262 115.51 227.97C115.913 227.451 116.33 227.429 116.985 227.255Z" fill="white"/>
<path d="M110.932 228.163L113.598 228.114C113.699 230.581 113.409 233.93 113.383 236.475C113.298 244.714 112.493 252.894 112.022 261.081L111 277.33C110.766 281.598 110.441 285.997 110.041 290.265C109.989 290.815 109.972 290.743 109.623 290.993C108.734 291.048 107.896 291.205 107.2 290.656C106.622 288.985 107.876 273.433 108.271 270.639C108.581 268.449 108.357 264.82 108.548 262.364C108.734 259.973 109.077 257.359 109.201 255.1L110.091 238.744C110.283 234.687 110.138 232.247 110.932 228.163Z" fill="white"/>
<path d="M106.507 228.272L109.321 228.228C109.312 228.756 109.349 230.313 109.106 230.69C108.549 231.631 107.635 239.542 107.15 242.131C104.331 257.194 101.731 272.838 98.454 287.841C98.3039 287.972 98.1797 288.082 98.0816 288.168C97.0642 288.354 96.413 287.998 95.5916 287.473C96.424 281.983 97.2727 275.825 98.4134 270.439C100.52 260.493 101.668 250.566 104.179 240.691C105.151 236.867 106.196 232.157 106.507 228.272Z" fill="white"/>
<path d="M102.726 227.951L105.209 228.255C105.154 229.292 105.283 230.68 104.546 231.433L104.121 231.352C103.761 231.574 91.8028 273.266 89.8959 277.212C89.2785 278.49 88.4193 283.083 87.4562 284.604C86.4572 284.586 85.665 284.577 84.9024 283.854C84.1785 281.872 92.0324 260.315 93.3175 256.269C93.8404 254.622 94.0455 252.891 94.5202 251.23C95.388 248.192 96.5181 245.112 97.5155 242.103C98.4994 239.135 99.8222 236.215 100.692 233.226C100.964 232.289 100.629 231.333 100.841 230.383C100.989 229.72 101.432 228.942 102.022 228.584C102.267 228.435 102.435 228.259 102.632 228.05L102.726 227.951Z" fill="white"/>
<path d="M98.9375 227.016C99.908 227.325 100.089 227.114 100.617 228.049C101.142 228.981 99.9716 230.816 99.2983 231.431C96.9467 233.575 97.4712 237.358 96.0226 239.58C95.7866 239.531 95.7447 239.513 95.5011 239.571C95.0796 240.471 94.2485 242.165 93.9406 243.062C93.7768 243.54 94.2442 244.793 93.3436 245.552C93.3792 245.176 93.4024 245.025 93.3632 244.639C92.9856 245.047 92.9824 245.203 92.8152 245.755L92.8772 245.94L93.2171 245.717L93.3537 246.05C93.0327 246.528 92.3108 246.79 92.3053 246.803C88.3277 255.189 84.9637 263.879 80.8777 272.214C79.8258 274.36 78.5047 277.702 77.2026 279.563C76.2609 279.113 75.5274 278.784 74.6578 278.189C76.3226 273.111 79.4392 267.685 81.4761 262.682C82.1607 261.001 83.2464 259.311 83.9832 257.64C85.0757 254.781 85.9818 252.058 87.5484 249.393C88.1601 248.353 88.49 246.569 89.1011 245.478C91.7831 240.687 93.9659 235.165 96.6206 230.429C97.3088 230.167 98.917 227.873 98.9375 227.016Z" fill="white"/>
<path d="M94.2605 225.529C95.13 225.815 95.3861 225.885 96.1588 226.367C96.1802 226.721 96.1452 226.78 96.0427 227.109L96.0109 227.208C96.2189 227.16 96.3299 227.099 96.5 226.971C96.3396 227.654 95.2626 229.533 94.7893 230.076C94.9828 229.47 95.1821 228.868 95.3872 228.265C94.6357 228.684 93.9537 231 93.4094 231.893C85.5017 244.865 77.9247 258.143 69.9441 271.072C68.5593 273.453 67.5979 275.024 65.9634 271.621C68.2248 266.871 71.4808 262.418 74.0039 257.78C77.7054 250.978 81.8694 244.436 85.9358 237.851C88.1695 234.234 90.6403 230.498 93.1761 227.109C93.5484 226.612 93.9142 226.047 94.2605 225.529Z" fill="white"/>
<path d="M90.031 223.584C91.0332 223.842 91.9115 224.077 91.7874 225.335C91.5664 227.577 89.4545 228.072 88.6034 229.19L66.4596 258.467C65.3076 259.965 60.8517 266.107 59.8746 266.787C59.0008 266.08 58.4904 265.672 57.5368 265.097C59.1957 262.068 63.1902 257.209 65.3572 254.395C72.427 245.22 79.3131 235.901 87.0008 227.23C87.8309 226.294 88.3883 224.275 89.1211 223.683C89.4912 223.728 89.567 223.694 89.9204 223.611L90.031 223.584Z" fill="white"/>
<path d="M82.4974 228.449C81.1012 229.34 74.8564 236.655 73.2912 238.305C67.8566 244.031 62.1268 249.41 56.6731 255.112C55.8596 255.963 53.4661 259.024 52.773 259.349C51.9686 259.132 51.4242 258.152 50.9985 257.473C50.8006 255.202 68.5342 239.082 70.5127 235.817C70.5691 235.724 72.0923 234.548 72.468 234.183C76.3487 230.412 81.3192 224.362 85.5981 221.213C86.5264 221.673 86.9742 221.988 87.8292 222.59C87.2778 223.462 85.9038 224.832 85.1444 225.65C84.3522 226.372 83.039 227.568 82.4974 228.449Z" fill="white"/>
<path d="M81.2145 218.042C82.2042 218.401 83.2694 219.356 84.1052 220.035C79.178 223.99 74.9353 227.965 70.0841 231.886C62.2782 238.194 54.5743 244.191 47.0374 250.855C45.6859 250.839 43.8992 248.975 45.0196 247.993C47.1575 246.116 49.375 244.277 51.5546 242.445C56.7482 238.115 61.988 233.84 67.273 229.622C70.3857 227.159 73.5668 224.743 76.6552 222.261C78.1292 221.076 79.7884 219.375 81.2145 218.042Z" fill="white"/>
<path d="M77.428 214.969C78.2921 214.836 79.7336 215.933 79.7182 217.003C79.1796 218.153 77.4483 218.691 76.456 219.404C65.3076 227.431 53.3361 234.097 41.9837 241.795C41.722 241.946 41.5782 241.905 41.2485 241.921C40.2186 241.435 39.7557 240.578 40.1077 239.553C40.1271 239.496 40.2193 239.062 40.2495 239.039C45.4123 235.088 51.1804 231.834 56.6035 228.228C57.2736 227.715 58.5358 227.302 59.1541 226.834C64.8276 222.54 71.3891 218.779 77.428 214.969Z" fill="white"/>
<path d="M74.466 210.48C75.3567 210.824 76.3979 212.352 76.2877 213.364C75.9056 214.132 69.8126 216.803 68.6652 217.409C58.472 222.78 47.9409 227.532 37.7156 232.846L37.1629 232.713C36.7659 232.114 35.937 230.439 35.9516 229.721C36.5135 229.074 38.4673 228.274 39.3217 227.884C48.9884 223.465 58.2811 218.295 67.9869 213.946C70.1999 212.956 72.3793 211.712 74.466 210.48Z" fill="white"/>
<path d="M71.0619 206.555C71.4229 206.503 71.5066 206.551 71.8598 206.632C72.7907 207.357 72.9633 208.139 73.3487 209.237C71.7237 210.051 67.6428 211.313 65.6898 212.067C55.7319 215.912 45.5428 218.946 35.468 222.562C34.6579 222.781 34.3484 222.979 33.7008 222.351C33.4064 221.639 33.5031 220.44 33.5147 219.626C38.8465 217.436 44.5141 215.986 49.8512 213.915C56.8321 211.206 64.0813 209.185 71.0619 206.555Z" fill="white"/>
<path d="M67.7873 201.56C68.4274 201.467 68.5365 201.406 69.1111 201.632C69.718 202.366 70.3487 203.502 69.8968 204.426C67.593 205.679 58.7464 207.306 55.9117 207.973C48.5119 209.713 40.8274 210.87 33.4802 212.772L32.9041 212.816C31.91 211.926 32.0613 210.234 32.3263 209.06C35.0548 209.274 37.2506 208.082 40.0014 207.52L56.5746 204.097C58.6949 203.674 66.4036 202.412 67.7873 201.56Z" fill="white"/>
<path d="M66.0592 195.979C66.4245 195.948 66.4797 195.98 66.8377 196.034C68.2761 197.318 68.9273 199.935 66.0884 199.979C60.2173 199.887 54.6712 200.757 48.8928 201.329C43.7763 201.836 38.3564 202.29 33.2482 202.666C32.263 202.738 31.9598 202.862 31.3885 202.005C31.2221 201.179 31.5564 200.094 31.7518 199.24C34.1074 198.97 36.6587 199.067 38.958 198.745C45.9882 197.766 53.1186 197.034 60.2125 196.698C62.3807 196.595 63.9492 196.534 66.0592 195.979Z" fill="white"/>
<path d="M32.7694 188.996C36.4633 188.809 40.4179 188.87 44.0993 189.199C45.9173 189.363 47.7196 189.76 49.5418 189.859C52.2429 190.007 64.4798 189.584 65.9742 190.841C66.3803 191.765 66.468 192.478 66.2636 193.492L65.9829 193.613C58.1794 193.667 50.6741 193.212 42.8627 192.87C39.6132 192.646 36.2192 192.881 33.0029 192.43C31.818 192.264 32.4478 189.701 32.7694 188.996Z" fill="white"/>
<path d="M34.893 179.021C34.9299 179.019 34.9667 179.017 35.0036 179.017C37.8119 179.007 42.0426 180.277 44.9441 180.784C47.5488 181.241 63.3463 183.191 64.3971 184.331C64.4313 184.367 64.4609 184.409 64.4933 184.446C64.6144 184.59 64.7271 184.725 64.8199 184.892C65.3224 185.789 65.0753 186.92 64.7791 187.844C63.6109 187.213 59.5447 186.702 58.0623 186.467L42.8136 184.063C39.9279 183.6 37.439 183.4 34.5858 182.528C34.3759 180.872 34.3818 180.633 34.893 179.021Z" fill="white"/>
<path d="M38.7173 170.61C41.1074 170.88 46.2014 172.536 48.6672 173.197C52.5287 174.232 56.5589 175.297 60.3773 176.465C61.4944 176.951 64.4284 177.585 64.9603 178.71C65.2216 179.264 65.3144 180.763 64.4893 181.065C61.9046 180.083 58.3278 179.462 55.5907 178.667C52.6667 177.818 49.7847 177.006 46.8316 176.152C44.1352 175.327 41.0767 175.052 38.6161 173.636C37.2357 172.841 38.0435 171.547 38.7173 170.61Z" fill="white"/>
<path d="M42.6859 162.108C44.9052 162.209 62.921 170.201 66.0606 171.69C66.1609 173.204 65.9469 173.549 65.2671 174.904C64.3284 174.834 62.6374 173.991 61.6547 173.585C58.6402 172.344 55.6492 171.046 52.6834 169.692C50.6979 168.797 47.0473 167.016 45.1605 166.614C44.4841 166.467 43.8158 166.285 43.1581 166.07C42.6038 165.89 42.197 165.747 41.9335 165.224C41.7972 164.132 42.2279 163.074 42.6859 162.108Z" fill="white"/>
<path d="M143.963 210.108C150.355 212.514 156.563 215.383 162.539 218.692C161.543 218.723 161.558 218.734 160.633 219.102C160.561 218.84 160.574 218.813 160.388 218.606L160.143 218.779C160.95 220.052 163.722 221.452 165.023 221.907C165.1 221.934 165.213 222.558 165.231 222.701C165.616 222.768 166.439 222.813 166.759 222.982C168.189 223.74 169.889 225.964 171.67 226.899C172.259 227.206 173.41 226.935 173.782 227.474C173.81 227.516 173.882 227.722 173.898 227.762C174.318 228.77 185.157 235.075 187.04 236.529C188.489 236.447 188.951 237.674 189.765 238.847C190.116 238.683 190.948 238.55 191.106 238.794C192.474 240.901 204.105 246.454 204.573 247.817C204.452 248.867 203.679 250.442 202.632 250.846C202.513 250.756 202.319 250.616 202.213 250.512C202.835 249.884 203.354 249.176 203.282 248.247C203.117 247.81 202.838 247.407 202.432 247.168C197.893 244.497 193.402 241.843 189.043 238.879C181.2 233.558 173.077 228.679 165.083 223.595C162.085 221.687 158.934 219.969 155.94 218.049C153.229 216.312 150.581 214.48 147.928 212.656C146.623 211.759 145.237 211.065 143.963 210.108Z" fill="white"/>
<path d="M48.2572 154.319C48.8521 154.538 53.0098 157.135 53.9623 157.699C58.3104 160.272 63.0541 162.655 67.3248 165.282C67.3378 166.506 67.7206 167.84 66.6501 168.442C62.7864 166.419 49.0899 159.313 46.6619 156.911C47.061 156.038 47.716 155.128 48.2572 154.319Z" fill="white"/>
<path d="M53.7704 147.74C54.5298 148.04 57.1421 149.956 57.9328 150.518C62.0353 153.439 66.2872 156.146 69.9642 159.598C69.8533 160.561 69.7595 162.321 68.8433 162.742C66.8395 161.206 52.71 151.041 52.371 150.356C52.3631 149.167 52.9935 148.661 53.7704 147.74Z" fill="white"/>
<path d="M60.7959 141.977C60.8143 141.985 71.6655 152.03 72.6252 152.943C74.1642 154.406 72.7259 154.116 72.7841 155.968C72.7927 156.24 72.7593 156.161 72.5204 156.421L72.0017 156.438C68.6413 154.356 63.3733 148.684 60.3214 145.952C59.7263 145.419 58.9354 144.478 58.9429 143.628C59.3213 142.951 60.1521 142.443 60.7959 141.977Z" fill="white"/>
<path d="M67.043 137.101C67.6516 137.15 68.01 137.273 68.4504 137.725C70.9692 140.345 73.2786 143.204 75.738 145.887C77.8154 148.153 78.0463 148.692 75.9854 150.944C75.1246 151.177 66.8546 140.912 65.7057 139.301C65.4024 138.875 66.7694 137.411 67.043 137.101Z" fill="white"/>
<path d="M74.1386 132.829C74.6595 132.858 74.836 132.877 75.3417 133.002C75.5842 133.204 82.3009 143.142 82.8128 144.102C82.2828 144.635 81.6046 145.231 81.0438 145.751C80.6645 145.722 80.2858 145.687 79.9078 145.646C77.6097 142.657 75.2721 138.293 73.0593 135.118C72.8096 134.76 73.793 133.703 74.0707 133.004L74.1386 132.829Z" fill="white"/>
<path d="M83.2867 129.955L83.6361 130.084C84.278 131.001 87.917 138.84 88.2768 140.008C87.3995 140.812 86.6341 141.266 85.5493 141.714C84.6831 140.093 84.0499 138.219 83.0956 136.573C82.6499 135.804 80.4312 132.142 80.4999 131.476C81.2018 130.621 82.253 130.337 83.2867 129.955Z" fill="white"/>
<path d="M90.0598 127.471C90.6255 127.433 90.9003 127.368 91.4369 127.57C92.0928 128.782 94.3101 134.94 94.4188 136.659C94.4494 137.143 92.9793 137.888 92.4695 138.165L91.8967 138.131C91.066 137.292 88.7362 130.648 88.2543 129.168C88.9175 128.371 89.1724 127.989 90.0598 127.471Z" fill="white"/>
<path d="M97.7035 126.204C98.9887 126.1 99.4145 126.623 99.9921 127.775C100.968 129.722 101.2 132.519 100.759 134.645C100.724 134.813 99.8413 135.17 99.6284 135.272C99.5601 135.293 99.2476 135.284 99.1618 135.285C98.5965 134.9 97.9421 133.662 97.3593 132.937C97.199 131.016 96.3607 127.556 97.7035 126.204Z" fill="white"/>
<path d="M96.6206 230.429C97.0912 229.351 97.251 228.184 97.8736 227.26C98.0751 226.96 98.5218 227.035 98.9375 227.016C98.917 227.873 97.3089 230.167 96.6206 230.429Z" fill="white"/>
<path d="M109.321 228.228L109.557 228.413C109.749 230.44 109.621 233.826 109.602 235.954C109.495 235.424 109.495 234.072 109.415 233.335L109.234 233.209L109.021 233.516C108.985 233.247 109.094 231.086 109.106 230.69C109.349 230.313 109.312 228.756 109.321 228.228Z" fill="white"/>
<path d="M109.021 233.516L109.234 233.209L109.415 233.335C109.495 234.072 109.495 235.424 109.602 235.954C109.68 235.309 109.023 237.912 109.096 237.624C109.023 236.411 109.293 234.239 109.021 233.516Z" fill="white"/>
<path d="M85.1443 225.65C84.9274 226.951 83.8018 228.176 82.4974 228.449C83.039 227.568 84.3522 226.373 85.1443 225.65Z" fill="white"/>
<path d="M154.491 194.674C155.363 194.623 157.518 194.97 158.244 195.353C156.748 195.459 155.088 194.857 154.182 195.503L154.022 195.31L154.491 194.674Z" fill="white"/>
<path d="M148.007 187.265C148.339 186.794 148.514 186.372 148.972 186.156C149.571 186.169 150.046 186.115 150.566 186.386C149.637 186.839 149.051 186.723 148.007 187.265Z" fill="white"/>
</svg>
