<svg width="1412" height="350" viewBox="0 0 1412 350" fill="none" xmlns="http://www.w3.org/2000/svg">
<g clip-path="url(#clip0_48_49)">
<path d="M367.667 1C368.788 2.93672 369.471 4.92402 370.38 6.80213C377.454 21.4176 384.571 36.0121 391.892 51.0599C384.75 51.0599 378.145 51.0599 371 51.0599C371 55.612 371.019 59.8907 370.997 64.1691C370.831 96.648 364.769 127.781 348.811 156.387C339.246 173.533 326.761 188.153 311.24 200.616C286.554 220.436 258.378 232.15 227.972 238.707C213.65 241.796 198.795 242.532 184.142 243.917C175.756 244.71 167.226 245.492 158.876 244.83C140.94 243.407 123.037 241.35 105.201 238.951C94.7997 237.551 84.5545 234.989 72.9688 232.699C75.0692 231.762 75.8922 231.114 76.7569 231.053C87.1096 230.318 97.5145 230.074 107.814 228.899C121.097 227.383 134.394 225.637 147.508 223.086C164.048 219.869 180.563 216.294 196.797 211.816C208.461 208.599 219.986 204.379 230.959 199.284C243.889 193.282 256.482 186.378 268.604 178.869C277.437 173.398 285.457 166.54 293.511 159.902C311.697 144.913 325.602 126.219 337.176 105.989C344.484 93.214 349.878 79.3311 355.914 65.8488C357.952 61.2981 359.327 56.4507 361.161 51.2993C354.395 51.2993 347.998 51.2993 341.18 51.2993C349.847 34.3906 358.279 17.9376 366.356 1.24229C366.444 0.999996 366.889 0.999996 367.667 1Z" fill="#FF9934"/>
<path d="M1 245.334C4.98686 246.673 9.0347 248.215 12.9505 250.04C35.1441 260.385 57.193 271.048 79.5099 281.119C103.03 291.732 127.54 299.637 152.72 305.194C164.615 307.819 176.746 309.784 188.875 310.825C202.057 311.956 215.45 312.784 228.588 311.722C246.043 310.31 263.117 306.135 279.411 299.248C299.635 290.699 317.541 278.747 333.138 263.329C338.545 257.984 343.793 252.478 349.113 247.045C349.488 247.261 349.863 247.476 350.238 247.692C347.746 254.33 345.876 261.294 342.623 267.536C337.017 278.29 331.155 289.011 324.301 298.991C314.443 313.344 301.402 324.52 286.109 332.995C270.269 341.772 253.156 346.442 235.362 348.985C232.349 349.416 229.339 349.864 226.664 350.652C221.978 351.001 216.956 351.001 211.797 350.64C210.642 349.855 209.653 349.163 208.601 349.047C198.846 347.974 188.993 347.519 179.336 345.892C158.821 342.434 139.063 335.999 120.205 327.406C105.756 320.821 91.8792 312.887 78.1041 304.936C53.7004 290.849 31.4894 273.753 10.916 254.498C7.90716 251.682 4.31972 249.485 1 247.001C1 246.556 1 246.112 1 245.334Z" fill="#FF9934"/>
<path d="M1213.47 351C1213 328.549 1213 306.098 1213 283.354C1214.95 283.212 1216.4 283.017 1217.85 283.016C1235.68 282.994 1253.51 282.989 1271.34 283.007C1278.11 283.014 1281.79 286.564 1281.98 293.298C1282.07 296.461 1282 299.629 1282 302.795C1282 310.412 1281.61 311.298 1276.31 316.047C1285.35 323.813 1284.5 342.071 1274.86 350.659C1254.65 351 1234.29 351 1213.47 351ZM1229.74 337.999C1240.4 338 1251.07 337.746 1261.72 338.114C1266.7 338.287 1268.31 335.548 1268.82 331.708C1269.4 327.289 1266.51 323.239 1262.41 323.147C1250.47 322.879 1238.52 323.052 1226.02 323.052C1226.02 327.53 1225.85 331.495 1226.15 335.424C1226.22 336.34 1227.87 337.136 1229.74 337.999ZM1229.74 307.998C1240.72 307.998 1251.7 307.845 1262.67 308.074C1267.02 308.165 1268.64 305.231 1268.57 302.282C1268.49 299.038 1268.34 294.238 1263.32 294.131C1251.07 293.87 1238.81 294.046 1226.02 294.046C1226.02 298.212 1225.84 301.843 1226.15 305.431C1226.23 306.352 1227.87 307.138 1229.74 307.998Z" fill="#334F94"/>
<path d="M1313.47 351C1312.67 350.174 1312.58 349.034 1311.97 348.572C1306.64 344.517 1308.02 338.783 1308.21 333.432C1308.24 332.601 1309.76 331.415 1310.8 331.107C1313.43 330.333 1316.17 329.969 1319.59 329.297C1319.83 332.841 1320.04 336.039 1320.28 339.615C1335.7 339.615 1351.05 339.615 1366.69 339.615C1366.69 333.866 1366.69 328.3 1366.69 321.998C1364.8 321.998 1363.04 321.998 1361.28 321.998C1347.97 321.998 1334.67 322.023 1321.37 321.987C1314.47 321.969 1311.05 318.505 1311.01 311.588C1310.98 305.602 1310.98 299.615 1311.01 293.628C1311.03 286.632 1314.14 283.387 1322.02 282.97C1337.28 282.947 1351.66 282.931 1366.05 282.914C1373.43 283.137 1376.44 285.043 1378.26 290.66C1380.99 299.068 1376.29 304.443 1366.26 303.674C1366.1 301.042 1365.93 298.321 1365.75 295.31C1351.56 295.31 1337.65 295.31 1323.37 295.31C1323.37 300.009 1323.37 304.583 1323.37 309.746C1325.07 309.829 1326.83 309.986 1328.59 309.989C1341.92 310.01 1355.25 309.979 1368.58 310.01C1375.52 310.026 1378.95 313.467 1378.99 320.385C1379.03 325.717 1378.61 331.086 1379.1 336.373C1379.67 342.457 1377.77 347.005 1372.86 350.656C1353.31 351 1333.63 351 1313.47 351Z" fill="#334F94"/>
<path d="M1106.47 351C1109.37 344.234 1112.57 337.37 1116.16 330.724C1123.29 317.532 1130.76 304.517 1137.87 291.315C1142.31 283.078 1146.16 281.008 1155.1 283.114C1156.03 283.333 1157.03 284.268 1157.53 285.14C1168.2 303.696 1178.81 322.29 1189.42 340.88C1191.22 344.024 1192.98 347.185 1194.88 350.669C1189.64 351 1184.29 351 1178.45 350.634C1176 346.275 1174.28 342.134 1171.96 338.362C1171.02 336.83 1168.79 335.192 1167.12 335.153C1155.31 334.879 1143.5 334.953 1131.7 335.094C1130.47 335.109 1128.7 335.977 1128.14 336.983C1125.57 341.551 1123.35 346.31 1121 351C1116.31 351 1111.62 351 1106.47 351ZM1136.89 320.306C1136.49 321.413 1136.08 322.52 1135.68 323.616C1145.2 323.616 1154.19 323.616 1163.89 323.616C1159.03 314.456 1154.48 305.894 1149.7 296.893C1145.24 304.939 1141.17 312.272 1136.89 320.306Z" fill="#334F94"/>
<path d="M1033.47 351C1033 328.573 1033 306.146 1033 283.361C1037.02 283.361 1040.6 283.361 1044.86 283.361C1044.86 302.343 1044.86 321.357 1044.86 340.876C1062.42 340.876 1079.31 340.876 1096.77 340.876C1096.77 344.286 1096.77 347.197 1096.88 350.554C1075.98 351 1054.96 351 1033.47 351Z" fill="#334F94"/>
<path d="M1413 90.5312C1409.48 91.2574 1408.94 89.1234 1408.98 86.2477C1409.06 79.2957 1409 72.3419 1407.91 64.7585C1404.32 68.6379 1400.73 72.5174 1396.39 77.2154C1392.79 73.1813 1389.48 69.4765 1385.72 65.2603C1385.02 74.2267 1384.41 82.1743 1383.72 90.1157C1383.71 90.2872 1382.86 90.3871 1381.69 90.7292C1381.69 79.265 1381.69 68.0841 1381.69 56.7967C1386.5 61.471 1391.16 65.9925 1396.25 70.9395C1400.31 66.8721 1403.95 63.116 1407.73 59.4915C1409.09 58.1846 1410.75 57.1938 1412.64 56.0293C1413 67.3541 1413 78.7083 1413 90.5312Z" fill="#101010"/>
<path d="M710.567 120.221C702.017 115.533 693.085 114.07 683.86 114.015C672.789 113.95 661.717 114 650.168 114C650.168 161.629 650.168 208.017 650.168 254.701C641.641 254.701 633.583 254.701 625.261 254.701C625.261 200.899 625.261 147.183 625.261 93.2474C631.792 92.8252 638.169 92.2237 644.558 92.0376C659.979 91.5884 675.409 90.9756 690.83 91.1069C704.514 91.2233 717.833 93.4125 728.677 102.964C730.456 104.531 732.042 106.318 734.113 108.403C740.997 100.154 749.977 95.075 760.031 92.599C783.698 86.7706 805.984 88.8957 825.735 105.09C837.841 115.016 843.677 127.873 843.861 142.947C844.294 178.431 843.93 213.924 844.089 249.413C844.108 253.755 842.965 255.382 838.484 255.086C833.009 254.725 827.48 254.767 821.999 255.077C817.941 255.306 816.91 253.79 816.925 249.898C817.054 215.075 817.227 180.25 816.908 145.431C816.738 126.924 804.13 114.653 785.422 113.987C775.379 113.629 766.117 115.546 757.718 121.577C750.62 126.674 747.063 133.368 747.04 141.859C746.945 178.514 746.999 215.17 746.999 251.825C746.999 252.648 746.999 253.47 746.999 254.975C739.089 254.975 731.329 255.126 723.592 254.777C722.665 254.736 721.14 251.994 721.114 250.483C720.909 238.49 721 226.492 721 214.496C721 191.503 721.218 168.507 720.895 145.518C720.762 136.091 718.578 127.036 710.567 120.221Z" fill="#FF9934"/>
<path d="M481.794 106.72C494.885 96.9282 509.561 92.9042 525.279 91.9895C536.634 91.3286 547.991 90.1071 559.344 90.1454C572.537 90.1899 585.729 91.2887 598.914 92.0526C601.146 92.1819 603.343 92.9295 606.28 93.5425C606.28 147.082 606.28 200.788 606.28 254.747C597.999 254.747 589.39 254.747 580.29 254.747C580.29 233.826 580.29 212.763 580.29 191.351C550.08 191.351 520.356 191.351 490.141 191.351C490.141 212.324 490.141 233.387 490.141 254.722C480.928 254.722 472.202 254.722 463 254.722C463 247.463 463.085 240.344 462.984 233.227C462.696 212.8 461.653 192.354 462.225 171.952C462.648 156.859 463.266 141.595 468.84 127.068C471.774 119.421 476.256 113.012 481.794 106.72ZM549.5 167C559.591 167 569.682 167 579.636 167C579.636 149.279 579.636 132.222 579.636 114.96C574.284 114.96 569.295 114.956 564.306 114.96C548.795 114.974 533.234 114.255 517.793 115.294C509.177 115.874 501.086 120.09 496.053 127.936C488.387 139.886 488.592 153.25 489.21 167C509.234 167 528.867 167 549.5 167Z" fill="#FF9934"/>
<path d="M1262.06 254.091C1261.03 254.393 1260 254.945 1258.97 254.958C1252.47 255.038 1245.96 254.837 1239.47 255.063C1235.87 255.188 1234.6 253.764 1234.99 250.369C1235.08 249.547 1235 248.704 1235 247.871C1235 197.547 1235 147.223 1235 96.8994C1235 95.1035 1235 93.3076 1235 90.9999C1237.16 90.9999 1238.94 90.9999 1240.71 90.9999C1266.71 90.9999 1292.7 90.9524 1318.7 91.0139C1342.52 91.0703 1361.37 100.656 1372.84 121.786C1376.56 128.641 1378.59 137.225 1378.73 145.066C1379.35 180.048 1378.94 215.048 1379.08 250.041C1379.1 254.128 1377.71 255.261 1373.86 255.069C1368.37 254.795 1362.85 254.776 1357.37 255.073C1353.28 255.294 1351.73 254.066 1351.92 249.76C1352.48 237.177 1352.81 224.579 1352.96 211.984C1353.13 197.988 1353.57 183.959 1352.82 170.002C1352.23 158.96 1351.08 147.724 1348.27 137.08C1344.44 122.581 1336.14 117.708 1321.6 115.101C1314.69 113.861 1307.58 113.089 1300.57 113.145C1291.05 113.221 1281.53 114.327 1272.01 114.917C1269.35 115.082 1266.68 114.984 1263.32 115.356C1262.41 117.172 1262.03 118.639 1262.03 120.105C1262.01 164.767 1262.04 209.429 1262.06 254.091Z" fill="#FF9934"/>
<path d="M1205.74 226.648C1194.36 241.56 1180.54 252.521 1162.2 256.288C1137.76 261.306 1115.53 256.819 1096.33 239.916C1082.96 228.146 1074.54 213.468 1072.37 196.092C1070.83 183.764 1072.12 171.095 1071.93 158.581C1071.77 147.814 1074.97 137.94 1080.11 128.778C1091.99 107.609 1109.55 94.4402 1134.07 90.9021C1149.82 88.6295 1164.74 90.5714 1178.71 98.0173C1199.52 109.105 1212.93 126.074 1216.93 149.558C1220.41 169.962 1220.88 190.426 1213.9 210.314C1211.94 215.899 1208.63 221.012 1205.74 226.648ZM1122.74 118.045C1121.65 118.757 1120.55 119.447 1119.48 120.185C1106.64 129.006 1098.3 141.037 1097.25 156.57C1096.38 169.41 1097.29 182.421 1098.11 195.311C1098.8 206.03 1104.39 215.116 1111.93 222.076C1123.79 233.012 1138.04 237.085 1154.49 234.158C1175.45 230.427 1192.43 210.101 1192.97 188.628C1193.17 180.467 1192.93 172.296 1193.01 164.131C1193.16 148.988 1188.33 136.127 1177.12 125.461C1163.38 112.385 1140.26 108.807 1122.74 118.045Z" fill="#FF9934"/>
<path d="M1005.04 136.213C1003.65 146.52 1002.51 156.416 1000.87 166.23C998.79 178.73 996.55 191.215 993.928 203.612C991.49 215.143 988.831 226.598 983.072 237.169C976.553 249.135 966.3 255.001 953.395 256.94C940.441 258.886 927.418 258.402 914.882 254.794C900.552 250.67 891.601 240.111 886.085 226.725C879.358 210.402 876.646 193.055 873.969 175.721C871.086 157.056 867.962 138.428 865.067 119.764C863.72 111.081 862.667 102.352 861.396 93.0209C869.234 93.0209 877.299 92.9115 885.352 93.1714C886.268 93.201 887.676 95.1987 887.912 96.4604C890.572 110.682 893.078 124.934 895.563 139.188C898.078 153.608 900.282 168.088 903.076 182.453C905.422 194.509 907.398 206.797 911.453 218.308C914.72 227.585 923.411 232.087 933.315 232.96C944.91 233.981 955.187 230.866 960.956 220.167C963.852 214.795 964.739 208.218 965.922 202.068C968.469 188.82 970.651 175.501 972.923 162.2C974.649 152.093 976.294 141.972 977.953 131.854C980.057 119.027 982.14 106.198 984.259 93.2007C993.525 93.2007 1002.63 93.2007 1011.74 93.2007C1010.14 103.998 1008.6 114.612 1006.98 125.216C1006.44 128.747 1005.71 132.25 1005.04 136.213Z" fill="#FF9934"/>
<path d="M319.268 218.252C327.036 210.311 335.239 203.168 341.888 194.791C353.772 179.821 362.243 162.815 368.298 144.649C368.441 144.218 368.908 143.895 370.068 142.521C370.223 145.774 370.469 148.069 370.419 150.358C369.994 169.609 367.607 188.594 360.869 206.716C350.74 233.959 333.513 255.373 308.072 270.05C288.248 281.486 266.895 287.917 244.295 289.879C228.458 291.254 212.47 292.289 196.617 291.694C181.333 291.119 166.062 288.718 150.915 286.303C121.517 281.617 93.0125 273.399 65.1228 263.05C56.3843 259.807 47.7344 256.326 39.0439 252.954C39.1926 252.404 39.3413 251.853 39.4899 251.303C46.2787 252.356 53.0542 253.505 59.8591 254.441C71.4469 256.034 83.0298 257.711 94.6575 258.953C109.101 260.495 123.566 262.312 138.061 262.761C154.323 263.264 170.651 262.8 186.909 261.951C199.743 261.28 212.709 260.352 225.264 257.801C241.518 254.499 257.668 250.21 273.407 244.973C288.646 239.903 302.398 231.457 315.336 221.868C316.664 220.885 317.787 219.626 319.268 218.252Z" fill="#324F94"/>
<path d="M211.384 166.759C201.747 158.619 196.572 148.274 196.212 136.289C195.867 124.813 199.819 114.409 208.187 105.946C215.853 98.1919 225.55 94.2672 235.835 94.3248C248.019 94.3932 259.028 98.7029 267.523 108.726C275.704 118.378 278.596 129.393 276.765 141.163C274.386 156.456 265.552 167.731 250.592 172.884C236.807 177.632 223.61 175.809 211.384 166.759Z" fill="#FF9934"/>
<path d="M1047.89 93C1050.03 93 1051.68 93 1053.66 93C1053.66 146.909 1053.66 200.591 1053.66 254.636C1045.45 254.636 1037.06 254.636 1028.33 254.636C1028.33 201.082 1028.33 147.399 1028.33 93C1034.58 93 1040.99 93 1047.89 93Z" fill="#FF9934"/>
<path d="M1361.04 87.5083C1361.01 80.2406 1360.79 73.4068 1361.08 66.5956C1361.27 62.1313 1359.56 60.5565 1355.27 60.946C1353.43 61.1125 1351.54 60.6668 1349.03 60.441C1352.56 57.328 1371.65 57.1492 1376.29 60.1889C1373.97 60.5436 1372.44 61.1083 1370.99 60.9387C1365.95 60.3474 1364.72 62.748 1364.92 67.3378C1365.22 73.9818 1365.06 80.6513 1364.9 87.3055C1364.88 88.409 1363.88 89.4895 1363.32 90.5806C1362.57 89.7043 1361.81 88.8281 1361.04 87.5083Z" fill="#101010"/>
<path d="M1262.42 253.852C1262.04 209.429 1262.01 164.767 1262.03 120.105C1262.03 118.639 1262.41 117.172 1262.87 115.375C1263.07 159.246 1263.04 203.448 1262.99 247.65C1262.99 249.638 1262.86 251.625 1262.42 253.852Z" fill="#FF9F20"/>
<path d="M1365.78 282.584C1351.66 282.93 1337.28 282.947 1322.42 282.939C1322.67 282.616 1323.39 282.056 1324.11 282.058C1337.91 282.084 1351.71 282.175 1365.78 282.584Z" fill="#0055AA"/>
</g>
<defs>
<clipPath id="clip0_48_49">
<rect width="1412" height="350" fill="white"/>
</clipPath>
</defs>
</svg>
